<svg xmlns="http://www.w3.org/2000/svg" display="none">


    <symbol id="facebook" viewBox="0 0 112.196 112.196">
        <g>
            <circle style="fill:#3B5998;" cx="56.098" cy="56.098" r="56.098"/>
            <path style="fill:#FFFFFF;" d="M70.201,58.294h-10.01v36.672H45.025V58.294h-7.213V45.406h7.213v-8.34
			c0-5.964,2.833-15.303,15.301-15.303L71.56,21.81v12.51h-8.151c-1.337,0-3.217,0.668-3.217,3.513v7.585h11.334L70.201,58.294z"/>
        </g>
    </symbol>


    <symbol id="youtube" viewBox="0 0 291.319 291.319">
        <g>
            <path style="fill:#C4302B;" d="M145.659,0c80.45,0,145.66,65.219,145.66,145.66s-65.21,145.659-145.66,145.659S0,226.1,0,145.66
			S65.21,0,145.659,0z"/>
            <path style="fill:#FFFFFF;" d="M142.145,118.357c4.606,0,8.212-1.466,10.852-3.55c2.622-2.094,3.933-4.943,3.933-8.603V84.118
			c0-3.25-1.338-5.936-4.006-8.002c-2.686-2.067-6.118-3.095-10.324-3.095c-4.597,0-8.275,0.974-10.997,2.931
			c-2.731,1.966-4.097,4.588-4.097,7.911v22.158c0,3.641,1.329,6.518,3.987,8.676S137.712,118.357,142.145,118.357z M137.33,84.938
			c0-0.838,0.437-1.511,1.302-2.048c0.874-0.519,2.003-0.774,3.387-0.774c1.511,0,2.731,0.255,3.651,0.774
			c0.929,0.537,1.384,1.211,1.384,2.048v20.993c0,1.038-0.455,1.857-1.366,2.449c-0.91,0.583-2.13,0.883-3.669,0.883
			c-1.502,0-2.667-0.282-3.478-0.874c-0.801-0.574-1.211-1.393-1.211-2.458V84.938z M172.625,118.33c1.62,0,3.268-0.929,4.98-1.857
			c1.73-0.947,3.377-2.331,4.962-4.133v4.907h8.603v-44.29h-8.603v33.62c-0.801,0.956-1.693,1.748-2.649,2.376
			c-0.974,0.619-1.775,0.938-2.403,0.938c-0.81,0-1.402-0.228-1.748-0.71c-0.364-0.464-0.564-1.22-0.564-2.258V72.966h-8.585v37.007
			c0,2.64,0.519,4.616,1.511,5.927C169.138,117.219,170.631,118.33,172.625,118.33z M197.642,136.638H93.677
			c-16.532,0-29.924,12.882-29.924,28.75v24.307c0,15.877,13.392,28.759,29.924,28.759h103.964c16.523,0,29.924-12.882,29.924-28.759
			v-24.307C227.566,149.519,214.165,136.638,197.642,136.638z M109.144,161.309H99.95v38.072h-8.894v-38.072h-9.195v-6.491h27.284
			C109.144,154.818,109.144,161.309,109.144,161.309z M136.583,199.909h-9.586v-3.951c-1.784,1.457-3.614,2.576-5.544,3.323
			c-1.903,0.783-3.76,1.156-5.562,1.156c-2.221,0-3.878-0.537-5.007-1.62c-1.111-1.065-1.684-2.667-1.684-4.807v-30.06h9.586v27.575
			c0,0.856,0.2,1.457,0.583,1.839c0.419,0.391,1.083,0.564,1.976,0.564c0.692,0,1.602-0.246,2.676-0.756
			c1.083-0.501,2.076-1.138,2.977-1.93V163.94h9.586C136.583,163.94,136.583,199.909,136.583,199.909z M172.87,193.063
			c0,2.358-0.747,4.151-2.23,5.417c-1.466,1.265-3.632,1.884-6.427,1.884c-1.866,0-3.523-0.237-4.962-0.719
			c-1.447-0.482-2.813-1.229-4.051-2.258v2.549h-9.568v-45.118h9.568v14.539c1.293-1.001,2.649-1.784,4.06-2.312
			c1.447-0.537,2.904-0.792,4.37-0.792c2.995,0,5.28,0.701,6.855,2.112c1.593,1.42,2.385,3.505,2.385,6.227
			C172.87,174.591,172.87,193.063,172.87,193.063z M209.34,182.912h-17.661v6.5c0,1.812,0.291,3.068,0.901,3.778
			c0.619,0.701,1.666,1.047,3.132,1.047c1.548,0,2.604-0.3,3.223-0.892c0.601-0.601,0.929-1.903,0.929-3.942v-1.566h9.495v1.766
			c0,3.532-1.138,6.191-3.487,7.984c-2.312,1.784-5.772,2.676-10.369,2.676c-4.142,0-7.401-0.947-9.777-2.84
			c-2.367-1.875-3.569-4.497-3.569-7.811v-15.495c0-2.977,1.311-5.435,3.933-7.319c2.613-1.875,5.963-2.813,10.105-2.813
			c4.224,0,7.474,0.874,9.75,2.613c2.267,1.739,3.396,4.251,3.396,7.511C209.34,174.109,209.34,182.912,209.34,182.912z
			M103.992,118.458h10.861V91.993l12.645-37.325h-11.043l-6.719,25.509h-0.692l-7.046-25.509H91.046l12.945,38.518
			C103.992,93.186,103.992,118.458,103.992,118.458z M159.16,171.532l-2.012,0.328l-1.957,1.011v20.738
			c0.765,0.537,1.52,0.947,2.249,1.174l2.285,0.355c1.165,0,2.012-0.228,2.558-0.71c0.537-0.464,0.819-1.229,0.819-2.276v-17.197
			c0-1.138-0.319-1.985-0.992-2.558C161.418,171.824,160.444,171.532,159.16,171.532z"/>
            <path style="fill:#FFFFFF;" d="M196.222,170.021c-1.475,0-2.522,0.31-3.168,0.947c-0.637,0.61-0.947,1.648-0.947,3.095v3.478h8.166
			v-3.478c0-1.447-0.337-2.476-0.974-3.095C198.67,170.331,197.624,170.021,196.222,170.021z"/>
        </g>
    </symbol>

    <symbol id="vk" viewBox="0 0 112.196 112.196">
        <g>
            <g>
                <circle id="XMLID_11_" style="fill:#4D76A1;" cx="56.098" cy="56.098" r="56.098"/>
            </g>
            <path style="fill-rule:evenodd;clip-rule:evenodd;fill:#FFFFFF;" d="M53.979,80.702h4.403c0,0,1.33-0.146,2.009-0.878
			c0.625-0.672,0.605-1.934,0.605-1.934s-0.086-5.908,2.656-6.778c2.703-0.857,6.174,5.71,9.853,8.235
			c2.782,1.911,4.896,1.492,4.896,1.492l9.837-0.137c0,0,5.146-0.317,2.706-4.363c-0.2-0.331-1.421-2.993-7.314-8.463
			c-6.168-5.725-5.342-4.799,2.088-14.702c4.525-6.031,6.334-9.713,5.769-11.29c-0.539-1.502-3.867-1.105-3.867-1.105l-11.076,0.069
			c0,0-0.821-0.112-1.43,0.252c-0.595,0.357-0.978,1.189-0.978,1.189s-1.753,4.667-4.091,8.636c-4.932,8.375-6.904,8.817-7.71,8.297
			c-1.875-1.212-1.407-4.869-1.407-7.467c0-8.116,1.231-11.5-2.397-12.376c-1.204-0.291-2.09-0.483-5.169-0.514
			c-3.952-0.041-7.297,0.012-9.191,0.94c-1.26,0.617-2.232,1.992-1.64,2.071c0.732,0.098,2.39,0.447,3.269,1.644
			c1.135,1.544,1.095,5.012,1.095,5.012s0.652,9.554-1.523,10.741c-1.493,0.814-3.541-0.848-7.938-8.446
			c-2.253-3.892-3.954-8.194-3.954-8.194s-0.328-0.804-0.913-1.234c-0.71-0.521-1.702-0.687-1.702-0.687l-10.525,0.069
			c0,0-1.58,0.044-2.16,0.731c-0.516,0.611-0.041,1.875-0.041,1.875s8.24,19.278,17.57,28.993
			C44.264,81.287,53.979,80.702,53.979,80.702L53.979,80.702z"/>
        </g>
    </symbol>


    <symbol id="clock" viewBox="0 0 443.294 443.294">
        <path d="m221.647 0c-122.214 0-221.647 99.433-221.647 221.647s99.433 221.647 221.647 221.647 221.647-99.433 221.647-221.647-99.433-221.647-221.647-221.647zm0 415.588c-106.941 0-193.941-87-193.941-193.941s87-193.941 193.941-193.941 193.941 87 193.941 193.941-87 193.941-193.941 193.941z"/>
        <path d="m235.5 83.118h-27.706v144.265l87.176 87.176 19.589-19.589-79.059-79.059z"/>
    </symbol>

    <symbol id="cancel" viewBox="0 0 512.001 512.001">
        <g>
            <g>
                <path d="M284.286,256.002L506.143,34.144c7.811-7.811,7.811-20.475,0-28.285c-7.811-7.81-20.475-7.811-28.285,0L256,227.717
				L34.143,5.859c-7.811-7.811-20.475-7.811-28.285,0c-7.81,7.811-7.811,20.475,0,28.285l221.857,221.857L5.858,477.859
				c-7.811,7.811-7.811,20.475,0,28.285c3.905,3.905,9.024,5.857,14.143,5.857c5.119,0,10.237-1.952,14.143-5.857L256,284.287
				l221.857,221.857c3.905,3.905,9.024,5.857,14.143,5.857s10.237-1.952,14.143-5.857c7.811-7.811,7.811-20.475,0-28.285
				L284.286,256.002z"/>
            </g>
        </g>
    </symbol>

    <symbol id="location" viewBox="0 0 512 512">
        <g>
            <g>
                <path d="M256,0C161.896,0,85.333,76.563,85.333,170.667c0,28.25,7.063,56.26,20.49,81.104L246.667,506.5
				c1.875,3.396,5.448,5.5,9.333,5.5s7.458-2.104,9.333-5.5l140.896-254.813c13.375-24.76,20.438-52.771,20.438-81.021
				C426.667,76.563,350.104,0,256,0z M256,256c-47.052,0-85.333-38.281-85.333-85.333c0-47.052,38.281-85.333,85.333-85.333
				s85.333,38.281,85.333,85.333C341.333,217.719,303.052,256,256,256z"/>
            </g>
        </g>
    </symbol>

    <symbol id="play" viewBox="0 0 163.861 163.861">
        <g>
            <path d="M34.857,3.613C20.084-4.861,8.107,2.081,8.107,19.106v125.637c0,17.042,11.977,23.975,26.75,15.509L144.67,97.275
			c14.778-8.477,14.778-22.211,0-30.686L34.857,3.613z"/>
        </g>
    </symbol>

    <symbol id="phone" viewBox="0 0 512.021 512.021">
        <g>
            <path d="m367.988 512.021c-16.528 0-32.916-2.922-48.941-8.744-70.598-25.646-136.128-67.416-189.508-120.795s-95.15-118.91-120.795-189.508c-8.241-22.688-10.673-46.108-7.226-69.612 3.229-22.016 11.757-43.389 24.663-61.809 12.963-18.501 30.245-33.889 49.977-44.5 21.042-11.315 44.009-17.053 68.265-17.053 7.544 0 14.064 5.271 15.645 12.647l25.114 117.199c1.137 5.307-.494 10.829-4.331 14.667l-42.913 42.912c40.482 80.486 106.17 146.174 186.656 186.656l42.912-42.913c3.838-3.837 9.361-5.466 14.667-4.331l117.199 25.114c7.377 1.581 12.647 8.101 12.647 15.645 0 24.256-5.738 47.224-17.054 68.266-10.611 19.732-25.999 37.014-44.5 49.977-18.419 12.906-39.792 21.434-61.809 24.663-6.899 1.013-13.797 1.518-20.668 1.519zm-236.349-479.321c-31.995 3.532-60.393 20.302-79.251 47.217-21.206 30.265-26.151 67.49-13.567 102.132 49.304 135.726 155.425 241.847 291.151 291.151 34.641 12.584 71.866 7.64 102.132-13.567 26.915-18.858 43.685-47.256 47.217-79.251l-95.341-20.43-44.816 44.816c-4.769 4.769-12.015 6.036-18.117 3.168-95.19-44.72-172.242-121.772-216.962-216.962-2.867-6.103-1.601-13.349 3.168-18.117l44.816-44.816z"/>
        </g>
    </symbol>

    <symbol id="check" viewBox="0 0 512 512">
        <g>
            <g>
                <path d="M504.502,75.496c-9.997-9.998-26.205-9.998-36.204,0L161.594,382.203L43.702,264.311c-9.997-9.998-26.205-9.997-36.204,0
				c-9.998,9.997-9.998,26.205,0,36.203l135.994,135.992c9.994,9.997,26.214,9.99,36.204,0L504.502,111.7
				C514.5,101.703,514.499,85.494,504.502,75.496z"/>
            </g>
        </g>
    </symbol>

    <symbol id="next" viewBox="0 0 512.002 512.002">
        <g>
            <g>
                <path d="M388.425,241.951L151.609,5.79c-7.759-7.733-20.321-7.72-28.067,0.04c-7.74,7.759-7.72,20.328,0.04,28.067l222.72,222.105
				L123.574,478.106c-7.759,7.74-7.779,20.301-0.04,28.061c3.883,3.89,8.97,5.835,14.057,5.835c5.074,0,10.141-1.932,14.017-5.795
				l236.817-236.155c3.737-3.718,5.834-8.778,5.834-14.05S392.156,245.676,388.425,241.951z"/>
            </g>
        </g>
    </symbol>

    <symbol id="prev" viewBox="0 0 443.52 443.52">
        <g>
            <g>
                <path d="M143.492,221.863L336.226,29.129c6.663-6.664,6.663-17.468,0-24.132c-6.665-6.662-17.468-6.662-24.132,0l-204.8,204.8
				c-6.662,6.664-6.662,17.468,0,24.132l204.8,204.8c6.78,6.548,17.584,6.36,24.132-0.42c6.387-6.614,6.387-17.099,0-23.712
				L143.492,221.863z"/>
            </g>
        </g>
    </symbol>

    <symbol id="up" viewBox="0 0 240.835 240.835">
        <g>
            <path d="M129.007,57.819c-4.68-4.68-12.499-4.68-17.191,0L3.555,165.803c-4.74,4.74-4.74,12.427,0,17.155
			c4.74,4.74,12.439,4.74,17.179,0l99.683-99.406l99.671,99.418c4.752,4.74,12.439,4.74,17.191,0c4.74-4.74,4.74-12.427,0-17.155
			L129.007,57.819z"/>
        </g>
    </symbol>

    <symbol id="timetable" viewBox="0 0 512 512">
        <path d="m482 292.25v-246.25c0-8.285156-6.714844-15-15-15h-76v-16c0-8.285156-6.714844-15-15-15s-15 6.714844-15 15v16h-60v-16c0-8.285156-6.714844-15-15-15s-15 6.714844-15 15v16h-60v-16c0-8.285156-6.714844-15-15-15s-15 6.714844-15 15v16h-60v-16c0-8.285156-6.714844-15-15-15s-15 6.714844-15 15v16h-76c-8.285156 0-15 6.714844-15 15v391c0 8.285156 6.714844 15 15 15h249.804688c24.25 36.152344 65.488281 60 112.195312 60 74.4375 0 135-60.5625 135-135 0-32.070312-11.25-61.5625-30-84.75zm-391-231.25v15c0 8.285156 6.714844 15 15 15s15-6.714844 15-15v-15h60v15c0 8.285156 6.714844 15 15 15s15-6.714844 15-15v-15h60v15c0 8.285156 6.714844 15 15 15s15-6.714844 15-15v-15h60v15c0 8.285156 6.714844 15 15 15s15-6.714844 15-15v-15h61v60h-422v-60zm-61 361v-271h422v113.804688c-21.464844-14.394532-47.269531-22.804688-75-22.804688-47.398438 0-89.164062 24.558594-113.257812 61.613281-2.027344-1.023437-4.3125-1.613281-6.742188-1.613281h-30c-8.285156 0-15 6.714844-15 15s6.714844 15 15 15h22.722656c-3.386718 9.554688-5.730468 19.601562-6.882812 30h-15.839844c-8.285156 0-15 6.714844-15 15s6.714844 15 15 15h15.839844c1.152344 10.398438 3.492187 20.445312 6.882812 30zm347 60c-57.898438 0-105-47.101562-105-105s47.101562-105 105-105 105 47.101562 105 105-47.101562 105-105 105zm0 0"/>
        <path d="m437 362h-45v-45c0-8.285156-6.714844-15-15-15s-15 6.714844-15 15v60c0 8.285156 6.714844 15 15 15h60c8.285156 0 15-6.714844 15-15s-6.714844-15-15-15zm0 0"/>
        <path d="m136 182h-30c-8.285156 0-15 6.714844-15 15s6.714844 15 15 15h30c8.285156 0 15-6.714844 15-15s-6.714844-15-15-15zm0 0"/>
        <path d="m136 242h-30c-8.285156 0-15 6.714844-15 15s6.714844 15 15 15h30c8.285156 0 15-6.714844 15-15s-6.714844-15-15-15zm0 0"/>
        <path d="m136 302h-30c-8.285156 0-15 6.714844-15 15s6.714844 15 15 15h30c8.285156 0 15-6.714844 15-15s-6.714844-15-15-15zm0 0"/>
        <path d="m227 212h30c8.285156 0 15-6.714844 15-15s-6.714844-15-15-15h-30c-8.285156 0-15 6.714844-15 15s6.714844 15 15 15zm0 0"/>
        <path d="m227 272h30c8.285156 0 15-6.714844 15-15s-6.714844-15-15-15h-30c-8.285156 0-15 6.714844-15 15s6.714844 15 15 15zm0 0"/>
        <path d="m136 362h-30c-8.285156 0-15 6.714844-15 15s6.714844 15 15 15h30c8.285156 0 15-6.714844 15-15s-6.714844-15-15-15zm0 0"/>
        <path d="m347 212h30c8.285156 0 15-6.714844 15-15s-6.714844-15-15-15h-30c-8.285156 0-15 6.714844-15 15s6.714844 15 15 15zm0 0"/>
    </symbol>

    <symbol id="email" viewBox="0 0 512 512">
        <g>
            <g>
                <path d="M467,61H45C20.218,61,0,81.196,0,106v300c0,24.72,20.128,45,45,45h422c24.72,0,45-20.128,45-45V106
				C512,81.28,491.872,61,467,61z M460.786,91L256.954,294.833L51.359,91H460.786z M30,399.788V112.069l144.479,143.24L30,399.788z
				M51.213,421l144.57-144.57l50.657,50.222c5.864,5.814,15.327,5.795,21.167-0.046L317,277.213L460.787,421H51.213z M482,399.787
				L338.213,256L482,112.212V399.787z"/>
            </g>
        </g>
    </symbol>

</svg>